<mxfile host="app.diagrams.net" modified="2023-06-22T18:18:19.896Z" agent="Mozilla/5.0 (Macintosh; Intel Mac OS X 10_15_7) AppleWebKit/537.36 (KHTML, like Gecko) Chrome/114.0.0.0 Safari/537.36" version="21.2.3" etag="KF-1uV1SqUb4-QIJeX3h" type="github">
  <diagram name="Page-1" id="6R0eKCTdKZwppKI_mLgE">
    <mxGraphModel>
      <root>
        <mxCell id="0" />
        <mxCell id="1" parent="0" />
      </root>
    </mxGraphModel>
  </diagram>
</mxfile>
